<svg width="29" height="23" viewBox="0 0 29 23" fill="none" xmlns="http://www.w3.org/2000/svg">
<path d="M20.27 22H14.39L6.56 10.18V22H0.68V0.849999H6.56L14.39 12.82V0.849999H20.27V22Z" fill="#221F31"/>
<path d="M25.5635 22.192C24.7315 22.192 24.0595 21.968 23.5475 21.52C23.0515 21.056 22.8035 20.472 22.8035 19.768C22.8035 19.064 23.0515 18.48 23.5475 18.016C24.0595 17.552 24.7315 17.32 25.5635 17.32C26.3795 17.32 27.0355 17.552 27.5315 18.016C28.0435 18.48 28.2995 19.064 28.2995 19.768C28.2995 20.456 28.0435 21.032 27.5315 21.496C27.0355 21.96 26.3795 22.192 25.5635 22.192Z" fill="#7F5CE2"/>
</svg>
