<svg width="337" height="87" viewBox="0 0 337 87" fill="none" xmlns="http://www.w3.org/2000/svg">
<path d="M183 65.66C183 61.4067 183.758 57.6911 185.273 54.5133C186.838 51.3356 188.964 48.8911 191.653 47.18C194.342 45.4689 197.324 44.6133 200.6 44.6133C203.24 44.6133 205.587 45.1756 207.64 46.3C209.742 47.3756 211.38 48.8667 212.553 50.7733V32H227V86.2667H212.553V80.5467C211.429 82.4533 209.84 83.9689 207.787 85.0933C205.733 86.2178 203.313 86.78 200.527 86.78C197.251 86.78 194.269 85.9244 191.58 84.2133C188.94 82.5022 186.838 80.0578 185.273 76.88C183.758 73.6533 183 69.9133 183 65.66ZM212.627 65.66C212.627 63.02 211.893 60.9422 210.427 59.4267C209.009 57.9111 207.249 57.1533 205.147 57.1533C202.996 57.1533 201.211 57.9111 199.793 59.4267C198.376 60.8933 197.667 62.9711 197.667 65.66C197.667 68.3 198.376 70.4022 199.793 71.9667C201.211 73.4822 202.996 74.24 205.147 74.24C207.249 74.24 209.009 73.4822 210.427 71.9667C211.893 70.4511 212.627 68.3489 212.627 65.66ZM274.498 65.22C274.498 66.3444 274.425 67.4689 274.278 68.5933H247.071C247.218 70.8422 247.829 72.5289 248.905 73.6533C250.029 74.7289 251.447 75.2667 253.158 75.2667C255.554 75.2667 257.265 74.1911 258.291 72.04H273.618C272.982 74.8756 271.736 77.4178 269.878 79.6667C268.069 81.8667 265.771 83.6022 262.985 84.8733C260.198 86.1444 257.118 86.78 253.745 86.78C249.687 86.78 246.069 85.9244 242.891 84.2133C239.762 82.5022 237.294 80.0578 235.485 76.88C233.724 73.7022 232.844 69.9622 232.844 65.66C232.844 61.3578 233.724 57.6422 235.485 54.5133C237.245 51.3356 239.689 48.8911 242.818 47.18C245.996 45.4689 249.638 44.6133 253.745 44.6133C257.802 44.6133 261.396 45.4444 264.525 47.1067C267.654 48.7689 270.098 51.1644 271.858 54.2933C273.618 57.3733 274.498 61.0156 274.498 65.22ZM259.831 61.6267C259.831 59.8667 259.245 58.4978 258.071 57.52C256.898 56.4933 255.431 55.98 253.671 55.98C251.911 55.98 250.469 56.4689 249.345 57.4467C248.22 58.3756 247.487 59.7689 247.145 61.6267H259.831ZM278.033 65.66C278.033 61.4067 278.79 57.6911 280.306 54.5133C281.87 51.3356 283.973 48.8911 286.613 47.18C289.302 45.4689 292.284 44.6133 295.559 44.6133C298.395 44.6133 300.839 45.1756 302.893 46.3C304.946 47.4244 306.535 48.94 307.659 50.8467V45.1267H322.033V86.2667H307.659V80.5467C306.535 82.4533 304.922 83.9689 302.819 85.0933C300.766 86.2178 298.346 86.78 295.559 86.78C292.284 86.78 289.302 85.9244 286.613 84.2133C283.973 82.5022 281.87 80.0578 280.306 76.88C278.79 73.6533 278.033 69.9133 278.033 65.66ZM307.659 65.66C307.659 63.02 306.926 60.9422 305.459 59.4267C304.042 57.9111 302.282 57.1533 300.179 57.1533C298.028 57.1533 296.244 57.9111 294.826 59.4267C293.408 60.8933 292.699 62.9711 292.699 65.66C292.699 68.3 293.408 70.4022 294.826 71.9667C296.244 73.4822 298.028 74.24 300.179 74.24C302.282 74.24 304.042 73.4822 305.459 71.9667C306.926 70.4511 307.659 68.3489 307.659 65.66Z" fill="white"/>
<path d="M330.622 86.9244C328.926 86.9244 327.557 86.4681 326.516 85.5556C325.504 84.6103 325 83.4208 325 81.9867C325 80.5525 325.504 79.363 326.516 78.4178C327.557 77.4725 328.926 77 330.622 77C332.284 77 333.619 77.4725 334.631 78.4178C335.672 79.363 336.196 80.5525 336.196 81.9867C336.196 83.3881 335.672 84.5614 334.631 85.5067C333.619 86.4519 332.284 86.9244 330.622 86.9244Z" fill="#7F5CE2"/>
<path d="M47.8867 86.2667H33.5133L14.3733 57.3733V86.2667H0V34.5667H14.3733L33.5133 63.8267V34.5667H47.8867V86.2667ZM95.381 65.22C95.381 66.3444 95.3077 67.4689 95.161 68.5933H67.9543C68.101 70.8422 68.7121 72.5289 69.7877 73.6533C70.9121 74.7289 72.3299 75.2667 74.041 75.2667C76.4366 75.2667 78.1477 74.1911 79.1743 72.04H94.501C93.8654 74.8756 92.6188 77.4178 90.761 79.6667C88.9521 81.8667 86.6543 83.6022 83.8677 84.8733C81.081 86.1444 78.001 86.78 74.6277 86.78C70.5699 86.78 66.9521 85.9244 63.7743 84.2133C60.6454 82.5022 58.1766 80.0578 56.3677 76.88C54.6077 73.7022 53.7277 69.9622 53.7277 65.66C53.7277 61.3578 54.6077 57.6422 56.3677 54.5133C58.1277 51.3356 60.5721 48.8911 63.701 47.18C66.8788 45.4689 70.521 44.6133 74.6277 44.6133C78.6854 44.6133 82.2788 45.4444 85.4077 47.1067C88.5366 48.7689 90.981 51.1644 92.741 54.2933C94.501 57.3733 95.381 61.0156 95.381 65.22ZM80.7143 61.6267C80.7143 59.8667 80.1277 58.4978 78.9543 57.52C77.781 56.4933 76.3143 55.98 74.5543 55.98C72.7943 55.98 71.3521 56.4689 70.2277 57.4467C69.1032 58.3756 68.3699 59.7689 68.0277 61.6267H80.7143ZM127.003 86.2667L115.636 69.4V86.2667H101.263V32H115.636V61.26L127.003 45.1267H144.236L128.03 65.8067L144.53 86.2667H127.003Z" fill="white"/>
<path d="M160.436 87C157.919 87 155.929 86.0297 154.465 84.089C152.822 81.9474 152 78.8185 152 74.7029C152 72.762 152.205 70.5197 152.616 67.9766L157.971 35H169.334L163.672 69.9342C163.466 70.8046 163.364 71.9088 163.364 73.2472C163.364 74.6525 163.608 75.6396 164.096 76.2084C164.609 76.7772 165.431 77.0616 166.561 77.0616C167.331 77.0616 168.076 76.8442 168.795 76.4091C169.54 75.9407 170.22 75.3051 170.837 74.502C172.095 72.8624 173.045 70.6872 173.687 67.9766H177C175.588 73.1633 173.816 77.2961 171.684 80.3744C169.887 82.8843 167.858 84.691 165.598 85.7954C163.954 86.5985 162.234 87 160.436 87Z" fill="#7F5CE2"/>
<path d="M163.999 10C159.582 10 156 13.6765 156 18.2128C156 19.7059 156.408 21.0945 157.066 22.3125C159.03 25.9466 159.551 27.9864 159.873 29.9606C160.141 31.6154 160.512 32 161.73 32C162.249 32 163.096 32 163.999 32C164.903 32 165.752 32 166.268 32C167.488 32 167.859 31.6154 168.127 29.9606C168.45 27.9853 168.97 25.945 170.934 22.3125C171.595 21.0951 172 19.7065 172 18.2128C172.002 13.676 168.419 10 163.999 10Z" fill="#7F5CE2"/>
<path d="M173.82 3.89612C174.644 2.47564 172.418 1.20022 171.586 2.61806C171.151 3.35874 168 8.72829 168 8.72829L170.24 10C170.24 10 173.039 5.22607 173.818 3.90194C173.819 3.90141 173.819 3.90035 173.819 3.90035L173.82 3.89612Z" fill="#7F5CE2"/>
<path d="M178.302 9.15308L178.3 9.15445C178.297 9.15491 178.297 9.15491 178.297 9.15491C177.295 9.71253 173 12.1001 173 12.1001L174.137 14C174.137 14 178.442 11.6074 179.444 11.0507C180.718 10.3437 179.574 8.45251 178.302 9.15308Z" fill="#7F5CE2"/>
<path d="M165 1.22811C165 1.61343 165 8 165 8H163C163 8 163 1.6129 163 1.22811C163 -0.409369 165 -0.409369 165 1.22811Z" fill="#7F5CE2"/>
<path d="M154.18 3.89612C153.355 2.47564 155.583 1.20022 156.415 2.61806C156.85 3.35874 160 8.72829 160 8.72829L157.762 10C157.762 10 154.959 5.22607 154.182 3.90194C154.182 3.90141 154.182 3.90035 154.182 3.90035L154.18 3.89612Z" fill="#7F5CE2"/>
<path d="M149.7 9.15308V9.15445C149.704 9.15491 149.704 9.15491 149.704 9.15491C150.707 9.71253 155 12.1001 155 12.1001L153.861 14C153.861 14 149.556 11.6074 148.555 11.0507C147.283 10.3437 148.426 8.45251 149.7 9.15308Z" fill="#7F5CE2"/>
</svg>
