<svg width="352" height="110" viewBox="0 0 352 110" fill="none" xmlns="http://www.w3.org/2000/svg">
<path d="M192.427 86.9489C192.427 82.6955 193.185 78.98 194.7 75.8022C196.265 72.6244 198.391 70.18 201.08 68.4689C203.769 66.7578 206.751 65.9022 210.027 65.9022C212.667 65.9022 215.013 66.4644 217.067 67.5889C219.169 68.6644 220.807 70.1555 221.98 72.0622V53.2889H236.427V107.556H221.98V101.836C220.856 103.742 219.267 105.258 217.213 106.382C215.16 107.507 212.74 108.069 209.953 108.069C206.678 108.069 203.696 107.213 201.007 105.502C198.367 103.791 196.265 101.347 194.7 98.1689C193.185 94.9422 192.427 91.2022 192.427 86.9489ZM222.053 86.9489C222.053 84.3089 221.32 82.2311 219.853 80.7155C218.436 79.2 216.676 78.4422 214.573 78.4422C212.422 78.4422 210.638 79.2 209.22 80.7155C207.802 82.1822 207.093 84.26 207.093 86.9489C207.093 89.5889 207.802 91.6911 209.22 93.2555C210.638 94.7711 212.422 95.5289 214.573 95.5289C216.676 95.5289 218.436 94.7711 219.853 93.2555C221.32 91.74 222.053 89.6378 222.053 86.9489ZM283.925 86.5089C283.925 87.6333 283.851 88.7578 283.705 89.8822H256.498C256.645 92.1311 257.256 93.8178 258.331 94.9422C259.456 96.0178 260.874 96.5555 262.585 96.5555C264.98 96.5555 266.691 95.48 267.718 93.3289H283.045C282.409 96.1644 281.163 98.7067 279.305 100.956C277.496 103.156 275.198 104.891 272.411 106.162C269.625 107.433 266.545 108.069 263.171 108.069C259.114 108.069 255.496 107.213 252.318 105.502C249.189 103.791 246.72 101.347 244.911 98.1689C243.15 94.9911 242.27 91.2511 242.27 86.9489C242.27 82.6467 243.15 78.9311 244.911 75.8022C246.671 72.6244 249.116 70.18 252.245 68.4689C255.423 66.7578 259.065 65.9022 263.171 65.9022C267.229 65.9022 270.823 66.7333 273.951 68.3955C277.08 70.0578 279.525 72.4533 281.285 75.5822C283.045 78.6622 283.925 82.3044 283.925 86.5089ZM269.258 82.9155C269.258 81.1555 268.671 79.7867 267.498 78.8089C266.325 77.7822 264.858 77.2689 263.098 77.2689C261.338 77.2689 259.896 77.7578 258.771 78.7355C257.647 79.6644 256.914 81.0578 256.571 82.9155H269.258ZM287.459 86.9489C287.459 82.6955 288.217 78.98 289.733 75.8022C291.297 72.6244 293.399 70.18 296.039 68.4689C298.728 66.7578 301.711 65.9022 304.986 65.9022C307.822 65.9022 310.266 66.4644 312.319 67.5889C314.373 68.7133 315.962 70.2289 317.086 72.1355V66.4155H331.459V107.556H317.086V101.836C315.962 103.742 314.348 105.258 312.246 106.382C310.193 107.507 307.773 108.069 304.986 108.069C301.711 108.069 298.728 107.213 296.039 105.502C293.399 103.791 291.297 101.347 289.733 98.1689C288.217 94.9422 287.459 91.2022 287.459 86.9489ZM317.086 86.9489C317.086 84.3089 316.353 82.2311 314.886 80.7155C313.468 79.2 311.708 78.4422 309.606 78.4422C307.455 78.4422 305.671 79.2 304.253 80.7155C302.835 82.1822 302.126 84.26 302.126 86.9489C302.126 89.5889 302.835 91.6911 304.253 93.2555C305.671 94.7711 307.455 95.5289 309.606 95.5289C311.708 95.5289 313.468 94.7711 314.886 93.2555C316.353 91.74 317.086 89.6378 317.086 86.9489Z" fill="white"/>
<path d="M342.926 107.947C341.229 107.947 339.861 107.49 338.819 106.578C337.807 105.633 337.304 104.443 337.304 103.009C337.304 101.575 337.807 100.385 338.819 99.44C339.861 98.4947 341.229 98.0222 342.926 98.0222C344.588 98.0222 345.923 98.4947 346.935 99.44C347.976 100.385 348.499 101.575 348.499 103.009C348.499 104.41 347.976 105.584 346.935 106.529C345.923 107.474 344.588 107.947 342.926 107.947Z" fill="#7F5CE2"/>
<path d="M51.9936 107.556H37.6203L18.4803 78.6622V107.556H4.10693V55.8555H18.4803L37.6203 85.1155V55.8555H51.9936V107.556ZM99.4879 86.5089C99.4879 87.6333 99.4146 88.7578 99.2679 89.8822H72.0613C72.2079 92.1311 72.819 93.8178 73.8946 94.9422C75.019 96.0178 76.4368 96.5555 78.1479 96.5555C80.5435 96.5555 82.2546 95.48 83.2813 93.3289H98.6079C97.9724 96.1644 96.7257 98.7067 94.8679 100.956C93.059 103.156 90.7613 104.891 87.9746 106.162C85.1879 107.433 82.1079 108.069 78.7346 108.069C74.6768 108.069 71.059 107.213 67.8813 105.502C64.7524 103.791 62.2835 101.347 60.4746 98.1689C58.7146 94.9911 57.8346 91.2511 57.8346 86.9489C57.8346 82.6467 58.7146 78.9311 60.4746 75.8022C62.2346 72.6244 64.679 70.18 67.8079 68.4689C70.9857 66.7578 74.6279 65.9022 78.7346 65.9022C82.7924 65.9022 86.3857 66.7333 89.5146 68.3955C92.6435 70.0578 95.0879 72.4533 96.8479 75.5822C98.6079 78.6622 99.4879 82.3044 99.4879 86.5089ZM84.8213 82.9155C84.8213 81.1555 84.2346 79.7867 83.0613 78.8089C81.8879 77.7822 80.4213 77.2689 78.6613 77.2689C76.9013 77.2689 75.459 77.7578 74.3346 78.7355C73.2102 79.6644 72.4768 81.0578 72.1346 82.9155H84.8213ZM131.11 107.556L119.743 90.6889V107.556H105.37V53.2889H119.743V82.5489L131.11 66.4155H148.343L132.137 87.0955L148.637 107.556H131.11Z" fill="white"/>
<path d="M171.131 13.6482C164.781 13.6482 159.63 18.7986 159.63 25.1536C159.63 27.2453 160.217 29.1906 161.163 30.8968C163.987 35.9878 164.737 38.8454 165.199 41.611C165.585 43.9294 166.118 44.4681 167.869 44.4681C168.616 44.4681 169.833 44.4681 171.131 44.4681C172.432 44.4681 173.652 44.4681 174.394 44.4681C176.148 44.4681 176.683 43.9294 177.068 41.611C177.532 38.8439 178.28 35.9856 181.104 30.8968C182.054 29.1913 182.637 27.246 182.637 25.1536C182.639 18.7979 177.488 13.6482 171.131 13.6482Z" fill="#7F5CE2"/>
<path d="M184.346 5.54846C185.394 3.71209 182.563 2.06326 181.505 3.89621C180.952 4.85375 176.945 11.7954 176.945 11.7954L179.794 13.4394C179.794 13.4394 183.352 7.26778 184.343 5.55599C184.345 5.5553 184.345 5.55393 184.345 5.55393L184.346 5.54846Z" fill="#7F5CE2"/>
<path d="M190.758 11.9774L190.756 11.9795C190.75 11.9801 190.75 11.9801 190.75 11.9801C189.305 12.8159 183.108 16.3941 183.108 16.3941L184.749 19.2414C184.749 19.2414 190.961 15.6556 192.406 14.8213C194.245 13.7618 192.594 10.9275 190.758 11.9774Z" fill="#7F5CE2"/>
<path d="M166.547 108.778C162.804 108.778 159.844 107.67 157.667 105.455C155.222 103.011 154 99.4393 154 94.7415C154 92.5261 154.306 89.9668 154.917 87.064L162.88 49.4237H179.781L171.359 89.2985C171.054 90.2919 170.901 91.5523 170.901 93.0801C170.901 94.6841 171.264 95.8107 171.99 96.46C172.754 97.1092 173.976 97.4338 175.656 97.4338C176.802 97.4338 177.91 97.1857 178.979 96.689C180.087 96.1544 181.099 95.4289 182.016 94.5122C183.887 92.6408 185.3 90.158 186.255 87.064H191.182C189.082 92.9842 186.446 97.7015 183.276 101.215C180.602 104.08 177.585 106.142 174.224 107.403C171.779 108.319 169.221 108.778 166.547 108.778Z" fill="#7F5CE2"/>
<path d="M172.838 1.59031C172.838 2.08927 172.838 10.3594 172.838 10.3594H169.549C169.549 10.3594 169.549 2.08858 169.549 1.59031C169.549 -0.530102 172.838 -0.530102 172.838 1.59031Z" fill="#7F5CE2"/>
<path d="M157.976 5.54846C156.927 3.71209 159.759 2.06326 160.818 3.89621C161.37 4.85375 165.376 11.7954 165.376 11.7954L162.531 13.4394C162.531 13.4394 158.966 7.26778 157.978 5.55599C157.978 5.5553 157.978 5.55393 157.978 5.55393L157.976 5.54846Z" fill="#7F5CE2"/>
<path d="M151.565 11.9774V11.9795C151.57 11.9801 151.57 11.9801 151.57 11.9801C153.018 12.8159 159.213 16.3941 159.213 16.3941L157.569 19.2414C157.569 19.2414 151.357 15.6556 149.912 14.8213C148.076 13.7618 149.726 10.9275 151.565 11.9774Z" fill="#7F5CE2"/>
</svg>
