<?xml version="1.0" encoding="UTF-8" standalone="no"?>
<!DOCTYPE svg PUBLIC "-//W3C//DTD SVG 1.1//EN"
 "http://www.w3.org/Graphics/SVG/1.1/DTD/svg11.dtd">
<!-- Generated by graphviz version 2.43.0 (0)
 -->
<!-- Title: controllers_diagram Pages: 1 -->
<svg width="658pt" height="621pt"
 viewBox="0.00 0.00 658.00 621.00" xmlns="http://www.w3.org/2000/svg" xmlns:xlink="http://www.w3.org/1999/xlink">
<g id="graph0" class="graph" transform="scale(1 1) rotate(0) translate(4 617)">
<title>controllers_diagram</title>
<polygon fill="transparent" stroke="transparent" points="-4,4 -4,-617 654,-617 654,4 -4,4"/>
<!-- _diagram_info -->
<g id="node1" class="node">
<title>_diagram_info</title>
<text text-anchor="start" x="399" y="-454.6" font-family="Times,serif" font-size="13.00">Controllers diagram</text>
<text text-anchor="start" x="399" y="-440.6" font-family="Times,serif" font-size="13.00">Date: Apr 29 2021 &#45; 17:02</text>
<text text-anchor="start" x="399" y="-426.6" font-family="Times,serif" font-size="13.00">Migration version: 20210425054434</text>
<text text-anchor="start" x="399" y="-412.6" font-family="Times,serif" font-size="13.00">Generated by RailRoady 1.5.3</text>
<text text-anchor="start" x="399" y="-398.6" font-family="Times,serif" font-size="13.00">http://railroady.prestonlee.com</text>
</g>
<!-- AdminController -->
<g id="node2" class="node">
<title>AdminController</title>
<path fill="none" stroke="black" d="M352,-0.5C352,-0.5 463,-0.5 463,-0.5 469,-0.5 475,-6.5 475,-12.5 475,-12.5 475,-96.5 475,-96.5 475,-102.5 469,-108.5 463,-108.5 463,-108.5 352,-108.5 352,-108.5 346,-108.5 340,-102.5 340,-96.5 340,-96.5 340,-12.5 340,-12.5 340,-6.5 346,-0.5 352,-0.5"/>
<text text-anchor="middle" x="407.5" y="-93.3" font-family="Times,serif" font-size="14.00">AdminController</text>
<polyline fill="none" stroke="black" points="340,-85.5 475,-85.5 "/>
<text text-anchor="start" x="348" y="-70.3" font-family="Times,serif" font-size="14.00">index</text>
<polyline fill="none" stroke="black" points="340,-62.5 475,-62.5 "/>
<polyline fill="none" stroke="black" points="340,-38.5 475,-38.5 "/>
<text text-anchor="start" x="348" y="-23.3" font-family="Times,serif" font-size="14.00">_layout</text>
<text text-anchor="start" x="348" y="-8.3" font-family="Times,serif" font-size="14.00">require_admin</text>
</g>
<!-- ApplicationController -->
<g id="node3" class="node">
<title>ApplicationController</title>
<path fill="none" stroke="black" d="M199,-391.5C199,-391.5 345,-391.5 345,-391.5 351,-391.5 357,-397.5 357,-403.5 357,-403.5 357,-502.5 357,-502.5 357,-508.5 351,-514.5 345,-514.5 345,-514.5 199,-514.5 199,-514.5 193,-514.5 187,-508.5 187,-502.5 187,-502.5 187,-403.5 187,-403.5 187,-397.5 193,-391.5 199,-391.5"/>
<text text-anchor="middle" x="272" y="-499.3" font-family="Times,serif" font-size="14.00">ApplicationController</text>
<polyline fill="none" stroke="black" points="187,-491.5 357,-491.5 "/>
<text text-anchor="start" x="195" y="-476.3" font-family="Times,serif" font-size="14.00">check_schedule</text>
<text text-anchor="start" x="195" y="-461.3" font-family="Times,serif" font-size="14.00">current_user</text>
<text text-anchor="start" x="195" y="-446.3" font-family="Times,serif" font-size="14.00">require_login</text>
<polyline fill="none" stroke="black" points="187,-438.5 357,-438.5 "/>
<polyline fill="none" stroke="black" points="187,-414.5 357,-414.5 "/>
<text text-anchor="start" x="195" y="-399.3" font-family="Times,serif" font-size="14.00">_layout</text>
</g>
<!-- HomeController -->
<g id="node4" class="node">
<title>HomeController</title>
<path fill="none" stroke="black" d="M12,-340.5C12,-340.5 119,-340.5 119,-340.5 125,-340.5 131,-346.5 131,-352.5 131,-352.5 131,-421.5 131,-421.5 131,-427.5 125,-433.5 119,-433.5 119,-433.5 12,-433.5 12,-433.5 6,-433.5 0,-427.5 0,-421.5 0,-421.5 0,-352.5 0,-352.5 0,-346.5 6,-340.5 12,-340.5"/>
<text text-anchor="middle" x="65.5" y="-418.3" font-family="Times,serif" font-size="14.00">HomeController</text>
<polyline fill="none" stroke="black" points="0,-410.5 131,-410.5 "/>
<text text-anchor="start" x="8" y="-395.3" font-family="Times,serif" font-size="14.00">index</text>
<polyline fill="none" stroke="black" points="0,-387.5 131,-387.5 "/>
<polyline fill="none" stroke="black" points="0,-363.5 131,-363.5 "/>
<text text-anchor="start" x="8" y="-348.3" font-family="Times,serif" font-size="14.00">_layout</text>
</g>
<!-- IdeasController -->
<g id="node5" class="node">
<title>IdeasController</title>
<path fill="none" stroke="black" d="M182,-85.5C182,-85.5 286,-85.5 286,-85.5 292,-85.5 298,-91.5 298,-97.5 298,-97.5 298,-346.5 298,-346.5 298,-352.5 292,-358.5 286,-358.5 286,-358.5 182,-358.5 182,-358.5 176,-358.5 170,-352.5 170,-346.5 170,-346.5 170,-97.5 170,-97.5 170,-91.5 176,-85.5 182,-85.5"/>
<text text-anchor="middle" x="234" y="-343.3" font-family="Times,serif" font-size="14.00">IdeasController</text>
<polyline fill="none" stroke="black" points="170,-335.5 298,-335.5 "/>
<text text-anchor="start" x="178" y="-320.3" font-family="Times,serif" font-size="14.00">create</text>
<text text-anchor="start" x="178" y="-305.3" font-family="Times,serif" font-size="14.00">destroy</text>
<text text-anchor="start" x="178" y="-290.3" font-family="Times,serif" font-size="14.00">downvote</text>
<text text-anchor="start" x="178" y="-275.3" font-family="Times,serif" font-size="14.00">edit</text>
<text text-anchor="start" x="178" y="-260.3" font-family="Times,serif" font-size="14.00">index</text>
<text text-anchor="start" x="178" y="-245.3" font-family="Times,serif" font-size="14.00">new</text>
<text text-anchor="start" x="178" y="-230.3" font-family="Times,serif" font-size="14.00">show</text>
<text text-anchor="start" x="178" y="-215.3" font-family="Times,serif" font-size="14.00">unvote_down</text>
<text text-anchor="start" x="178" y="-200.3" font-family="Times,serif" font-size="14.00">unvote_up</text>
<text text-anchor="start" x="178" y="-185.3" font-family="Times,serif" font-size="14.00">update</text>
<text text-anchor="start" x="178" y="-170.3" font-family="Times,serif" font-size="14.00">upvote</text>
<polyline fill="none" stroke="black" points="170,-162.5 298,-162.5 "/>
<polyline fill="none" stroke="black" points="170,-138.5 298,-138.5 "/>
<text text-anchor="start" x="178" y="-123.3" font-family="Times,serif" font-size="14.00">_layout</text>
<text text-anchor="start" x="178" y="-108.3" font-family="Times,serif" font-size="14.00">idea_params</text>
<text text-anchor="start" x="178" y="-93.3" font-family="Times,serif" font-size="14.00">set_idea</text>
</g>
<!-- TestController -->
<g id="node6" class="node">
<title>TestController</title>
<path fill="none" stroke="black" d="M29,-204.5C29,-204.5 124,-204.5 124,-204.5 130,-204.5 136,-210.5 136,-216.5 136,-216.5 136,-286.5 136,-286.5 136,-292.5 130,-298.5 124,-298.5 124,-298.5 29,-298.5 29,-298.5 23,-298.5 17,-292.5 17,-286.5 17,-286.5 17,-216.5 17,-216.5 17,-210.5 23,-204.5 29,-204.5"/>
<text text-anchor="middle" x="76.5" y="-283.3" font-family="Times,serif" font-size="14.00">TestController</text>
<polyline fill="none" stroke="black" points="17,-275.5 136,-275.5 "/>
<polyline fill="none" stroke="black" points="17,-251.5 136,-251.5 "/>
<polyline fill="none" stroke="black" points="17,-227.5 136,-227.5 "/>
<text text-anchor="start" x="25" y="-212.3" font-family="Times,serif" font-size="14.00">_layout</text>
</g>
<!-- UsersController -->
<g id="node7" class="node">
<title>UsersController</title>
<path fill="none" stroke="black" d="M29,-459.5C29,-459.5 136,-459.5 136,-459.5 142,-459.5 148,-465.5 148,-471.5 148,-471.5 148,-600.5 148,-600.5 148,-606.5 142,-612.5 136,-612.5 136,-612.5 29,-612.5 29,-612.5 23,-612.5 17,-606.5 17,-600.5 17,-600.5 17,-471.5 17,-471.5 17,-465.5 23,-459.5 29,-459.5"/>
<text text-anchor="middle" x="82.5" y="-597.3" font-family="Times,serif" font-size="14.00">UsersController</text>
<polyline fill="none" stroke="black" points="17,-589.5 148,-589.5 "/>
<text text-anchor="start" x="25" y="-574.3" font-family="Times,serif" font-size="14.00">generate</text>
<text text-anchor="start" x="25" y="-559.3" font-family="Times,serif" font-size="14.00">login</text>
<text text-anchor="start" x="25" y="-544.3" font-family="Times,serif" font-size="14.00">login_post</text>
<text text-anchor="start" x="25" y="-529.3" font-family="Times,serif" font-size="14.00">logout</text>
<polyline fill="none" stroke="black" points="17,-521.5 148,-521.5 "/>
<polyline fill="none" stroke="black" points="17,-497.5 148,-497.5 "/>
<text text-anchor="start" x="25" y="-482.3" font-family="Times,serif" font-size="14.00">_layout</text>
<text text-anchor="start" x="25" y="-467.3" font-family="Times,serif" font-size="14.00">csv_generate</text>
</g>
<!-- VotesController -->
<g id="node8" class="node">
<title>VotesController</title>
<path fill="none" stroke="black" d="M352,-136.5C352,-136.5 483,-136.5 483,-136.5 489,-136.5 495,-142.5 495,-148.5 495,-148.5 495,-352.5 495,-352.5 495,-358.5 489,-364.5 483,-364.5 483,-364.5 352,-364.5 352,-364.5 346,-364.5 340,-358.5 340,-352.5 340,-352.5 340,-148.5 340,-148.5 340,-142.5 346,-136.5 352,-136.5"/>
<text text-anchor="middle" x="417.5" y="-349.3" font-family="Times,serif" font-size="14.00">VotesController</text>
<polyline fill="none" stroke="black" points="340,-341.5 495,-341.5 "/>
<text text-anchor="start" x="348" y="-326.3" font-family="Times,serif" font-size="14.00">create</text>
<text text-anchor="start" x="348" y="-311.3" font-family="Times,serif" font-size="14.00">destroy</text>
<text text-anchor="start" x="348" y="-296.3" font-family="Times,serif" font-size="14.00">edit</text>
<text text-anchor="start" x="348" y="-281.3" font-family="Times,serif" font-size="14.00">index</text>
<text text-anchor="start" x="348" y="-266.3" font-family="Times,serif" font-size="14.00">new</text>
<text text-anchor="start" x="348" y="-251.3" font-family="Times,serif" font-size="14.00">show</text>
<text text-anchor="start" x="348" y="-236.3" font-family="Times,serif" font-size="14.00">update</text>
<polyline fill="none" stroke="black" points="340,-228.5 495,-228.5 "/>
<polyline fill="none" stroke="black" points="340,-204.5 495,-204.5 "/>
<text text-anchor="start" x="348" y="-189.3" font-family="Times,serif" font-size="14.00">_layout</text>
<text text-anchor="start" x="348" y="-174.3" font-family="Times,serif" font-size="14.00">set_vote</text>
<text text-anchor="start" x="348" y="-159.3" font-family="Times,serif" font-size="14.00">set_writable_duties</text>
<text text-anchor="start" x="348" y="-144.3" font-family="Times,serif" font-size="14.00">vote_params</text>
</g>
</g>
</svg>
