<?xml version="1.0" encoding="UTF-8" standalone="no"?>
<!DOCTYPE svg PUBLIC "-//W3C//DTD SVG 1.1//EN"
 "http://www.w3.org/Graphics/SVG/1.1/DTD/svg11.dtd">
<!-- Generated by graphviz version 2.43.0 (0)
 -->
<!-- Title: models_diagram Pages: 1 -->
<svg width="1535pt" height="483pt"
 viewBox="0.00 0.00 1535.00 483.00" xmlns="http://www.w3.org/2000/svg" xmlns:xlink="http://www.w3.org/1999/xlink">
<g id="graph0" class="graph" transform="scale(1 1) rotate(0) translate(4 479)">
<title>models_diagram</title>
<polygon fill="transparent" stroke="transparent" points="-4,4 -4,-479 1531,-479 1531,4 -4,4"/>
<!-- _diagram_info -->
<g id="node1" class="node">
<title>_diagram_info</title>
<text text-anchor="start" x="8" y="-401.1" font-family="Times,serif" font-size="13.00">Models diagram</text>
<text text-anchor="start" x="8" y="-387.1" font-family="Times,serif" font-size="13.00">Date: Apr 29 2021 &#45; 17:01</text>
<text text-anchor="start" x="8" y="-373.1" font-family="Times,serif" font-size="13.00">Migration version: 20210425054434</text>
<text text-anchor="start" x="8" y="-359.1" font-family="Times,serif" font-size="13.00">Generated by RailRoady 1.5.3</text>
<text text-anchor="start" x="8" y="-345.1" font-family="Times,serif" font-size="13.00">http://railroady.prestonlee.com</text>
</g>
<!-- ApplicationRecord -->
<g id="node2" class="node">
<title>ApplicationRecord</title>
<ellipse fill="none" stroke="black" cx="372.5" cy="-376.5" rx="95.58" ry="18"/>
<text text-anchor="middle" x="372.5" y="-372.8" font-family="Times,serif" font-size="14.00">ApplicationRecord</text>
</g>
<!-- Duty -->
<g id="node3" class="node">
<title>Duty</title>
<path fill="none" stroke="black" d="M851,-316C851,-316 1162,-316 1162,-316 1168,-316 1174,-322 1174,-328 1174,-328 1174,-425 1174,-425 1174,-431 1168,-437 1162,-437 1162,-437 851,-437 851,-437 845,-437 839,-431 839,-425 839,-425 839,-328 839,-328 839,-322 845,-316 851,-316"/>
<text text-anchor="middle" x="1006.5" y="-421.8" font-family="Times,serif" font-size="14.00">Duty</text>
<polyline fill="none" stroke="black" points="839,-414 1174,-414 "/>
<text text-anchor="start" x="847" y="-398.8" font-family="Times,serif" font-size="14.00">id :bigint</text>
<text text-anchor="start" x="847" y="-383.8" font-family="Times,serif" font-size="14.00">name :character varying</text>
<text text-anchor="start" x="847" y="-368.8" font-family="Times,serif" font-size="14.00">created_at :timestamp(6) without time zone</text>
<text text-anchor="start" x="847" y="-353.8" font-family="Times,serif" font-size="14.00">updated_at :timestamp(6) without time zone</text>
<text text-anchor="start" x="847" y="-338.8" font-family="Times,serif" font-size="14.00">is_general :boolean</text>
<text text-anchor="start" x="847" y="-323.8" font-family="Times,serif" font-size="14.00">write_all :boolean</text>
</g>
<!-- DutyUser -->
<g id="node4" class="node">
<title>DutyUser</title>
<path fill="none" stroke="black" d="M975,-68C975,-68 1154,-68 1154,-68 1160,-68 1166,-74 1166,-80 1166,-80 1166,-147 1166,-147 1166,-153 1160,-159 1154,-159 1154,-159 975,-159 975,-159 969,-159 963,-153 963,-147 963,-147 963,-80 963,-80 963,-74 969,-68 975,-68"/>
<text text-anchor="middle" x="1064.5" y="-143.8" font-family="Times,serif" font-size="14.00">DutyUser</text>
<polyline fill="none" stroke="black" points="963,-136 1166,-136 "/>
<text text-anchor="start" x="971" y="-120.8" font-family="Times,serif" font-size="14.00">duty_id :bigint</text>
<text text-anchor="start" x="971" y="-105.8" font-family="Times,serif" font-size="14.00">user_id :bigint</text>
<text text-anchor="start" x="971" y="-90.8" font-family="Times,serif" font-size="14.00">has_write_access :boolean</text>
<text text-anchor="start" x="971" y="-75.8" font-family="Times,serif" font-size="14.00">id :bigint</text>
</g>
<!-- Duty&#45;&gt;DutyUser -->
<g id="edge1" class="edge">
<title>Duty&#45;&gt;DutyUser</title>
<path fill="none" stroke="#71ef9c" d="M1115.77,-312.1C1137.89,-300.18 1161.21,-288.25 1183.5,-278 1204.2,-268.48 1218.52,-278.73 1231.5,-260 1254.67,-226.56 1192.46,-232.59 1183.5,-227 1156.96,-210.44 1131.26,-187.33 1110.57,-166.36"/>
<ellipse fill="none" stroke="#71ef9c" cx="1112.15" cy="-314.06" rx="4" ry="4"/>
<polygon fill="#71ef9c" stroke="#71ef9c" points="1110.43,-166.22 1106.69,-155.91 1106.95,-162.64 1103.46,-159.05 1103.46,-159.05 1103.46,-159.05 1106.95,-162.64 1100.24,-162.19 1110.43,-166.22 1110.43,-166.22"/>
<text text-anchor="middle" x="1282" y="-248.8" font-family="Times,serif" font-size="14.00">duties_users</text>
</g>
<!-- Duty&#45;&gt;DutyUser -->
<g id="edge4" class="edge">
<title>Duty&#45;&gt;DutyUser</title>
<path fill="none" stroke="#15233e" d="M997.21,-307.76C996.2,-287.38 996.9,-265.1 1001.5,-245 1007.59,-218.37 1019.85,-190.85 1031.95,-167.99"/>
<ellipse fill="none" stroke="#15233e" cx="997.45" cy="-311.78" rx="4" ry="4"/>
<polygon fill="#15233e" stroke="#15233e" points="1031.98,-167.94 1040.7,-161.29 1034.36,-163.54 1036.74,-159.15 1036.74,-159.15 1036.74,-159.15 1034.36,-163.54 1032.79,-157 1031.98,-167.94 1031.98,-167.94"/>
<text text-anchor="middle" x="1114.5" y="-248.8" font-family="Times,serif" font-size="14.00">duties_users_with_write_access</text>
</g>
<!-- User -->
<g id="node7" class="node">
<title>User</title>
<path fill="none" stroke="black" d="M606,-0.5C606,-0.5 917,-0.5 917,-0.5 923,-0.5 929,-6.5 929,-12.5 929,-12.5 929,-214.5 929,-214.5 929,-220.5 923,-226.5 917,-226.5 917,-226.5 606,-226.5 606,-226.5 600,-226.5 594,-220.5 594,-214.5 594,-214.5 594,-12.5 594,-12.5 594,-6.5 600,-0.5 606,-0.5"/>
<text text-anchor="middle" x="761.5" y="-211.3" font-family="Times,serif" font-size="14.00">User</text>
<polyline fill="none" stroke="black" points="594,-203.5 929,-203.5 "/>
<text text-anchor="start" x="602" y="-188.3" font-family="Times,serif" font-size="14.00">id :bigint</text>
<text text-anchor="start" x="602" y="-173.3" font-family="Times,serif" font-size="14.00">mail :character varying</text>
<text text-anchor="start" x="602" y="-158.3" font-family="Times,serif" font-size="14.00">password_digest :text</text>
<text text-anchor="start" x="602" y="-143.3" font-family="Times,serif" font-size="14.00">birth_date :timestamp without time zone</text>
<text text-anchor="start" x="602" y="-128.3" font-family="Times,serif" font-size="14.00">is_admin :boolean</text>
<text text-anchor="start" x="602" y="-113.3" font-family="Times,serif" font-size="14.00">rating :integer</text>
<text text-anchor="start" x="602" y="-98.3" font-family="Times,serif" font-size="14.00">created_at :timestamp(6) without time zone</text>
<text text-anchor="start" x="602" y="-83.3" font-family="Times,serif" font-size="14.00">updated_at :timestamp(6) without time zone</text>
<text text-anchor="start" x="602" y="-68.3" font-family="Times,serif" font-size="14.00">name :character varying</text>
<text text-anchor="start" x="602" y="-53.3" font-family="Times,serif" font-size="14.00">surname :character varying</text>
<text text-anchor="start" x="602" y="-38.3" font-family="Times,serif" font-size="14.00">patronymic :character varying</text>
<text text-anchor="start" x="602" y="-23.3" font-family="Times,serif" font-size="14.00">restore_date :timestamp without time zone</text>
<text text-anchor="start" x="602" y="-8.3" font-family="Times,serif" font-size="14.00">is_boss :boolean</text>
</g>
<!-- Duty&#45;&gt;User -->
<g id="edge2" class="edge">
<title>Duty&#45;&gt;User</title>
<path fill="none" stroke="#24eb7d" d="M895.67,-309.97C875.55,-295.11 855.8,-278.26 839.5,-260 832.63,-252.3 826.15,-243.9 820.08,-235.13"/>
<polygon fill="#24eb7d" stroke="#24eb7d" points="895.9,-310.14 901.36,-319.64 899.95,-313.07 904,-316 904,-316 904,-316 899.95,-313.07 906.63,-312.35 895.9,-310.14 895.9,-310.14"/>
<polygon fill="#24eb7d" stroke="#24eb7d" points="819.95,-234.94 818.14,-224.12 817.17,-230.78 814.4,-226.62 814.4,-226.62 814.4,-226.62 817.17,-230.78 810.65,-229.12 819.95,-234.94 819.95,-234.94"/>
</g>
<!-- Duty&#45;&gt;User -->
<g id="edge5" class="edge">
<title>Duty&#45;&gt;User</title>
<path fill="none" stroke="#ef45fd" d="M923.43,-309.35C905.63,-293.84 887.41,-276.9 871.5,-260 863.86,-251.89 856.24,-243.25 848.79,-234.4"/>
<polygon fill="#ef45fd" stroke="#ef45fd" points="923.45,-309.37 928.08,-319.31 927.24,-312.63 931.02,-315.9 931.02,-315.9 931.02,-315.9 927.24,-312.63 933.96,-312.49 923.45,-309.37 923.45,-309.37"/>
<polygon fill="#ef45fd" stroke="#ef45fd" points="848.67,-234.26 845.74,-223.69 845.47,-230.41 842.28,-226.57 842.28,-226.57 842.28,-226.57 845.47,-230.41 838.82,-229.44 848.67,-234.26 848.67,-234.26"/>
<text text-anchor="middle" x="933" y="-248.8" font-family="Times,serif" font-size="14.00">has_write_access</text>
</g>
<!-- Vote -->
<g id="node8" class="node">
<title>Vote</title>
<path fill="none" stroke="black" d="M1204,-8C1204,-8 1515,-8 1515,-8 1521,-8 1527,-14 1527,-20 1527,-20 1527,-207 1527,-207 1527,-213 1521,-219 1515,-219 1515,-219 1204,-219 1204,-219 1198,-219 1192,-213 1192,-207 1192,-207 1192,-20 1192,-20 1192,-14 1198,-8 1204,-8"/>
<text text-anchor="middle" x="1359.5" y="-203.8" font-family="Times,serif" font-size="14.00">Vote</text>
<polyline fill="none" stroke="black" points="1192,-196 1527,-196 "/>
<text text-anchor="start" x="1200" y="-180.8" font-family="Times,serif" font-size="14.00">id :bigint</text>
<text text-anchor="start" x="1200" y="-165.8" font-family="Times,serif" font-size="14.00">user_id :bigint</text>
<text text-anchor="start" x="1200" y="-150.8" font-family="Times,serif" font-size="14.00">vote_type :integer</text>
<text text-anchor="start" x="1200" y="-135.8" font-family="Times,serif" font-size="14.00">body :text</text>
<text text-anchor="start" x="1200" y="-120.8" font-family="Times,serif" font-size="14.00">title :character varying</text>
<text text-anchor="start" x="1200" y="-105.8" font-family="Times,serif" font-size="14.00">active_to :timestamp without time zone</text>
<text text-anchor="start" x="1200" y="-90.8" font-family="Times,serif" font-size="14.00">iter_array :text</text>
<text text-anchor="start" x="1200" y="-75.8" font-family="Times,serif" font-size="14.00">current_iter :integer</text>
<text text-anchor="start" x="1200" y="-60.8" font-family="Times,serif" font-size="14.00">created_at :timestamp(6) without time zone</text>
<text text-anchor="start" x="1200" y="-45.8" font-family="Times,serif" font-size="14.00">updated_at :timestamp(6) without time zone</text>
<text text-anchor="start" x="1200" y="-30.8" font-family="Times,serif" font-size="14.00">vote_status :integer</text>
<text text-anchor="start" x="1200" y="-15.8" font-family="Times,serif" font-size="14.00">duty_id :bigint</text>
</g>
<!-- Duty&#45;&gt;Vote -->
<g id="edge3" class="edge">
<title>Duty&#45;&gt;Vote</title>
<path fill="none" stroke="#6bfca6" d="M1106.19,-311.97C1130.67,-298.83 1157.37,-286.44 1183.5,-278 1215.03,-267.82 1307.28,-282.6 1331.5,-260 1340.85,-251.28 1347.62,-240.45 1352.47,-228.68"/>
<ellipse fill="none" stroke="#6bfca6" cx="1102.52" cy="-313.97" rx="4" ry="4"/>
<polygon fill="#6bfca6" stroke="#6bfca6" points="1352.55,-228.45 1360.19,-220.58 1354.25,-223.75 1355.96,-219.05 1355.96,-219.05 1355.96,-219.05 1354.25,-223.75 1351.72,-217.52 1352.55,-228.45 1352.55,-228.45"/>
</g>
<!-- Idea -->
<g id="node5" class="node">
<title>Idea</title>
<path fill="none" stroke="black" d="M498,-278.5C498,-278.5 809,-278.5 809,-278.5 815,-278.5 821,-284.5 821,-290.5 821,-290.5 821,-462.5 821,-462.5 821,-468.5 815,-474.5 809,-474.5 809,-474.5 498,-474.5 498,-474.5 492,-474.5 486,-468.5 486,-462.5 486,-462.5 486,-290.5 486,-290.5 486,-284.5 492,-278.5 498,-278.5"/>
<text text-anchor="middle" x="653.5" y="-459.3" font-family="Times,serif" font-size="14.00">Idea</text>
<polyline fill="none" stroke="black" points="486,-451.5 821,-451.5 "/>
<text text-anchor="start" x="494" y="-436.3" font-family="Times,serif" font-size="14.00">id :bigint</text>
<text text-anchor="start" x="494" y="-421.3" font-family="Times,serif" font-size="14.00">vote_id :integer</text>
<text text-anchor="start" x="494" y="-406.3" font-family="Times,serif" font-size="14.00">user_id :integer</text>
<text text-anchor="start" x="494" y="-391.3" font-family="Times,serif" font-size="14.00">title :character varying</text>
<text text-anchor="start" x="494" y="-376.3" font-family="Times,serif" font-size="14.00">body :text</text>
<text text-anchor="start" x="494" y="-361.3" font-family="Times,serif" font-size="14.00">created_on :integer</text>
<text text-anchor="start" x="494" y="-346.3" font-family="Times,serif" font-size="14.00">archived_on :integer</text>
<text text-anchor="start" x="494" y="-331.3" font-family="Times,serif" font-size="14.00">instance_id :integer</text>
<text text-anchor="start" x="494" y="-316.3" font-family="Times,serif" font-size="14.00">idea_status :integer</text>
<text text-anchor="start" x="494" y="-301.3" font-family="Times,serif" font-size="14.00">created_at :timestamp(6) without time zone</text>
<text text-anchor="start" x="494" y="-286.3" font-family="Times,serif" font-size="14.00">updated_at :timestamp(6) without time zone</text>
</g>
<!-- Idea&#45;&gt;User -->
<g id="edge6" class="edge">
<title>Idea&#45;&gt;User</title>
<path fill="none" stroke="#f55f03" d="M727.38,-269.2C728.83,-266.14 730.21,-263.07 731.5,-260 734.7,-252.4 737.57,-244.42 740.14,-236.29"/>
<polygon fill="#f55f03" stroke="#f55f03" points="727.27,-269.41 718.79,-276.36 725.05,-273.89 722.82,-278.37 722.82,-278.37 722.82,-278.37 725.05,-273.89 726.85,-280.37 727.27,-269.41 727.27,-269.41"/>
<polygon fill="#f55f03" stroke="#f55f03" points="740.15,-236.26 747.34,-227.97 741.59,-231.47 743.03,-226.68 743.03,-226.68 743.03,-226.68 741.59,-231.47 738.72,-225.39 740.15,-236.26 740.15,-236.26"/>
<text text-anchor="middle" x="764" y="-248.8" font-family="Times,serif" font-size="14.00">upvotes</text>
</g>
<!-- Idea&#45;&gt;User -->
<g id="edge7" class="edge">
<title>Idea&#45;&gt;User</title>
<path fill="none" stroke="#16afd3" d="M644.55,-268.16C645.85,-260.2 647.78,-252.4 650.5,-245 651.59,-242.03 652.79,-239.07 654.08,-236.14"/>
<polygon fill="#16afd3" stroke="#16afd3" points="644.52,-268.39 638.77,-277.72 643.88,-273.34 643.23,-278.3 643.23,-278.3 643.23,-278.3 643.88,-273.34 647.7,-278.88 644.52,-268.39 644.52,-268.39"/>
<polygon fill="#16afd3" stroke="#16afd3" points="654.19,-235.91 662.54,-228.81 656.33,-231.4 658.48,-226.88 658.48,-226.88 658.48,-226.88 656.33,-231.4 654.42,-224.95 654.19,-235.91 654.19,-235.91"/>
<text text-anchor="middle" x="689" y="-248.8" font-family="Times,serif" font-size="14.00">downvotes</text>
</g>
<!-- Schedule -->
<g id="node6" class="node">
<title>Schedule</title>
<path fill="none" stroke="black" d="M1204,-331C1204,-331 1515,-331 1515,-331 1521,-331 1527,-337 1527,-343 1527,-343 1527,-410 1527,-410 1527,-416 1521,-422 1515,-422 1515,-422 1204,-422 1204,-422 1198,-422 1192,-416 1192,-410 1192,-410 1192,-343 1192,-343 1192,-337 1198,-331 1204,-331"/>
<text text-anchor="middle" x="1359.5" y="-406.8" font-family="Times,serif" font-size="14.00">Schedule</text>
<polyline fill="none" stroke="black" points="1192,-399 1527,-399 "/>
<text text-anchor="start" x="1200" y="-383.8" font-family="Times,serif" font-size="14.00">id :bigint</text>
<text text-anchor="start" x="1200" y="-368.8" font-family="Times,serif" font-size="14.00">checked_at :timestamp without time zone</text>
<text text-anchor="start" x="1200" y="-353.8" font-family="Times,serif" font-size="14.00">created_at :timestamp(6) without time zone</text>
<text text-anchor="start" x="1200" y="-338.8" font-family="Times,serif" font-size="14.00">updated_at :timestamp(6) without time zone</text>
</g>
</g>
</svg>
