<?xml version="1.0" encoding="UTF-8" standalone="no"?>
<!DOCTYPE svg PUBLIC "-//W3C//DTD SVG 1.1//EN"
 "http://www.w3.org/Graphics/SVG/1.1/DTD/svg11.dtd">
<!-- Generated by graphviz version 2.43.0 (0)
 -->
<!-- Title: models_diagram Pages: 1 -->
<svg width="1212pt" height="173pt"
 viewBox="0.00 0.00 1211.70 173.00" xmlns="http://www.w3.org/2000/svg" xmlns:xlink="http://www.w3.org/1999/xlink">
<g id="graph0" class="graph" transform="scale(1 1) rotate(0) translate(4 169)">
<title>models_diagram</title>
<polygon fill="transparent" stroke="transparent" points="-4,4 -4,-169 1207.7,-169 1207.7,4 -4,4"/>
<!-- _diagram_info -->
<g id="node1" class="node">
<title>_diagram_info</title>
<text text-anchor="start" x="8" y="-150.6" font-family="Times,serif" font-size="13.00">Models diagram</text>
<text text-anchor="start" x="8" y="-136.6" font-family="Times,serif" font-size="13.00">Date: Apr 29 2021 &#45; 17:01</text>
<text text-anchor="start" x="8" y="-122.6" font-family="Times,serif" font-size="13.00">Migration version: 20210425054434</text>
<text text-anchor="start" x="8" y="-108.6" font-family="Times,serif" font-size="13.00">Generated by RailRoady 1.5.3</text>
<text text-anchor="start" x="8" y="-94.6" font-family="Times,serif" font-size="13.00">http://railroady.prestonlee.com</text>
</g>
<!-- ApplicationRecord -->
<g id="node2" class="node">
<title>ApplicationRecord</title>
<ellipse fill="none" stroke="black" cx="372.5" cy="-126" rx="95.58" ry="18"/>
<text text-anchor="middle" x="372.5" y="-122.3" font-family="Times,serif" font-size="14.00">ApplicationRecord</text>
</g>
<!-- Duty -->
<g id="node3" class="node">
<title>Duty</title>
<ellipse fill="none" stroke="black" cx="817.5" cy="-126" rx="33.29" ry="18"/>
<text text-anchor="middle" x="817.5" y="-122.3" font-family="Times,serif" font-size="14.00">Duty</text>
</g>
<!-- DutyUser -->
<g id="node4" class="node">
<title>DutyUser</title>
<ellipse fill="none" stroke="black" cx="941.5" cy="-18" rx="55.79" ry="18"/>
<text text-anchor="middle" x="941.5" y="-14.3" font-family="Times,serif" font-size="14.00">DutyUser</text>
</g>
<!-- Duty&#45;&gt;DutyUser -->
<g id="edge1" class="edge">
<title>Duty&#45;&gt;DutyUser</title>
<path fill="none" stroke="#1d987a" d="M836.32,-103.28C842.98,-96.98 850.96,-90.77 859.5,-87 897.28,-70.3 1016.74,-99.59 1044.5,-69 1062.48,-49.19 1033.09,-36.39 1001.17,-28.7"/>
<ellipse fill="none" stroke="#1d987a" cx="833.41" cy="-106.21" rx="4" ry="4"/>
<polygon fill="#1d987a" stroke="#1d987a" points="1000.99,-28.66 992.21,-22.09 996.11,-27.57 991.23,-26.48 991.23,-26.48 991.23,-26.48 996.11,-27.57 990.24,-30.87 1000.99,-28.66 1000.99,-28.66"/>
<text text-anchor="middle" x="1095" y="-57.8" font-family="Times,serif" font-size="14.00">duties_users</text>
</g>
<!-- Duty&#45;&gt;DutyUser -->
<g id="edge4" class="edge">
<title>Duty&#45;&gt;DutyUser</title>
<path fill="none" stroke="#fdf727" d="M809.16,-100.44C805.75,-85.56 804.6,-67 814.5,-54 823.08,-42.73 853.11,-34.17 881.8,-28.34"/>
<ellipse fill="none" stroke="#fdf727" cx="810.21" cy="-104.4" rx="4" ry="4"/>
<polygon fill="#fdf727" stroke="#fdf727" points="882.04,-28.29 892.72,-30.81 886.95,-27.34 891.86,-26.39 891.86,-26.39 891.86,-26.39 886.95,-27.34 891,-21.97 882.04,-28.29 882.04,-28.29"/>
<text text-anchor="middle" x="927.5" y="-57.8" font-family="Times,serif" font-size="14.00">duties_users_with_write_access</text>
</g>
<!-- User -->
<g id="node7" class="node">
<title>User</title>
<ellipse fill="none" stroke="black" cx="602.5" cy="-18" rx="33.29" ry="18"/>
<text text-anchor="middle" x="602.5" y="-14.3" font-family="Times,serif" font-size="14.00">User</text>
</g>
<!-- Duty&#45;&gt;User -->
<g id="edge2" class="edge">
<title>Duty&#45;&gt;User</title>
<path fill="none" stroke="#88b008" d="M776.95,-116.73C742.09,-108.38 691.43,-93.21 652.5,-69 641.1,-61.91 630.31,-51.75 621.7,-42.44"/>
<polygon fill="#88b008" stroke="#88b008" points="777.04,-116.75 785.77,-123.39 781.91,-117.88 786.78,-119 786.78,-119 786.78,-119 781.91,-117.88 787.8,-114.62 777.04,-116.75 777.04,-116.75"/>
<polygon fill="#88b008" stroke="#88b008" points="621.64,-42.38 618.37,-31.92 618.32,-38.64 615,-34.9 615,-34.9 615,-34.9 618.32,-38.64 611.64,-37.89 621.64,-42.38 621.64,-42.38"/>
</g>
<!-- Duty&#45;&gt;User -->
<g id="edge5" class="edge">
<title>Duty&#45;&gt;User</title>
<path fill="none" stroke="#1dd6f2" d="M780.84,-111.89C753.02,-101.47 714.12,-85.88 681.5,-69 664.07,-59.98 645.48,-48.33 630.72,-38.54"/>
<polygon fill="#1dd6f2" stroke="#1dd6f2" points="781.18,-112.01 789,-119.71 785.87,-113.75 790.56,-115.49 790.56,-115.49 790.56,-115.49 785.87,-113.75 792.12,-111.27 781.18,-112.01 781.18,-112.01"/>
<polygon fill="#1dd6f2" stroke="#1dd6f2" points="630.37,-38.31 624.57,-28.99 626.22,-35.52 622.06,-32.73 622.06,-32.73 622.06,-32.73 626.22,-35.52 619.56,-36.47 630.37,-38.31 630.37,-38.31"/>
<text text-anchor="middle" x="743" y="-57.8" font-family="Times,serif" font-size="14.00">has_write_access</text>
</g>
<!-- Vote -->
<g id="node8" class="node">
<title>Vote</title>
<ellipse fill="none" stroke="black" cx="1172.5" cy="-18" rx="31.4" ry="18"/>
<text text-anchor="middle" x="1172.5" y="-14.3" font-family="Times,serif" font-size="14.00">Vote</text>
</g>
<!-- Duty&#45;&gt;Vote -->
<g id="edge3" class="edge">
<title>Duty&#45;&gt;Vote</title>
<path fill="none" stroke="#188fd7" d="M835.92,-103.42C842.64,-96.99 850.76,-90.69 859.5,-87 917.97,-62.33 1090.79,-102.8 1144.5,-69 1153.16,-63.55 1159.38,-54.42 1163.72,-45.43"/>
<ellipse fill="none" stroke="#188fd7" cx="832.96" cy="-106.43" rx="4" ry="4"/>
<polygon fill="#188fd7" stroke="#188fd7" points="1163.84,-45.14 1171.87,-37.67 1165.78,-40.53 1167.72,-35.93 1167.72,-35.93 1167.72,-35.93 1165.78,-40.53 1163.58,-34.18 1163.84,-45.14 1163.84,-45.14"/>
</g>
<!-- Idea -->
<g id="node5" class="node">
<title>Idea</title>
<ellipse fill="none" stroke="black" cx="516.5" cy="-126" rx="30.59" ry="18"/>
<text text-anchor="middle" x="516.5" y="-122.3" font-family="Times,serif" font-size="14.00">Idea</text>
</g>
<!-- Idea&#45;&gt;User -->
<g id="edge6" class="edge">
<title>Idea&#45;&gt;User</title>
<path fill="none" stroke="#f9f9fc" d="M532.76,-100.32C542.34,-86.32 555.01,-68.71 567.5,-54 571.19,-49.66 575.31,-45.22 579.39,-41.03"/>
<polygon fill="#f9f9fc" stroke="#f9f9fc" points="532.54,-100.65 523.21,-106.42 529.74,-104.8 526.94,-108.94 526.94,-108.94 526.94,-108.94 529.74,-104.8 530.67,-111.46 532.54,-100.65 532.54,-100.65"/>
<polygon fill="#f9f9fc" stroke="#f9f9fc" points="579.54,-40.89 589.79,-37 583.07,-37.35 586.61,-33.82 586.61,-33.82 586.61,-33.82 583.07,-37.35 583.42,-30.63 579.54,-40.89 579.54,-40.89"/>
<text text-anchor="middle" x="596" y="-57.8" font-family="Times,serif" font-size="14.00">upvotes</text>
</g>
<!-- Idea&#45;&gt;User -->
<g id="edge7" class="edge">
<title>Idea&#45;&gt;User</title>
<path fill="none" stroke="#5a706f" d="M494.15,-102.22C486.35,-92.74 478.54,-81.13 474.5,-69 472.39,-62.68 470.46,-59.3 474.5,-54 485.05,-40.18 527.63,-30.5 560.82,-24.87"/>
<polygon fill="#5a706f" stroke="#5a706f" points="494.33,-102.43 497.52,-112.92 497.62,-106.19 500.91,-109.96 500.91,-109.96 500.91,-109.96 497.62,-106.19 504.3,-107 494.33,-102.43 494.33,-102.43"/>
<polygon fill="#5a706f" stroke="#5a706f" points="560.9,-24.85 571.49,-27.69 565.84,-24.05 570.77,-23.25 570.77,-23.25 570.77,-23.25 565.84,-24.05 570.05,-18.81 560.9,-24.85 560.9,-24.85"/>
<text text-anchor="middle" x="513" y="-57.8" font-family="Times,serif" font-size="14.00">downvotes</text>
</g>
<!-- Schedule -->
<g id="node6" class="node">
<title>Schedule</title>
<ellipse fill="none" stroke="black" cx="921.5" cy="-126" rx="53.09" ry="18"/>
<text text-anchor="middle" x="921.5" y="-122.3" font-family="Times,serif" font-size="14.00">Schedule</text>
</g>
</g>
</svg>
