<svg width="434" height="434" viewBox="0 0 434 434" fill="none" xmlns="http://www.w3.org/2000/svg">
<rect width="434" height="434" fill="#ECECEC"/>
<g filter="url(#filter0_d)">
<path d="M214.77 124.612C174.504 124.612 141.841 157.27 141.841 197.567C141.841 210.83 145.56 223.165 151.562 233.984C169.469 266.265 174.222 284.385 177.151 301.923C179.599 316.622 182.984 320.038 194.086 320.038C198.821 320.038 206.537 320.038 214.77 320.038C223.021 320.038 230.754 320.038 235.459 320.038C246.582 320.038 249.972 316.622 252.415 301.923C255.354 284.376 260.102 266.252 278.004 233.984C284.028 223.169 287.726 210.835 287.726 197.567C287.739 157.266 255.076 124.612 214.77 124.612Z" fill="white"/>
<path d="M240.863 325.32H188.727C186.557 325.32 184.808 327.064 184.808 329.226V331.838C184.808 333.991 186.557 335.744 188.727 335.744H240.863C243.003 335.744 244.756 333.991 244.756 331.838V329.226C244.765 327.064 243.003 325.32 240.863 325.32Z" fill="white"/>
<path d="M240.863 340.957H188.727C186.557 340.957 184.808 342.693 184.808 344.863V347.475C184.808 349.628 186.557 351.373 188.727 351.373H240.863C243.003 351.373 244.756 349.628 244.756 347.475V344.863C244.765 342.697 243.003 340.957 240.863 340.957Z" fill="white"/>
<path d="M240.863 356.598H188.727C186.557 356.598 184.808 358.343 184.808 360.504V363.117C184.808 365.278 186.557 367.023 188.727 367.023H240.863C243.003 367.023 244.756 365.278 244.756 363.117V360.504C244.765 358.343 243.003 356.598 240.863 356.598Z" fill="white"/>
<path d="M195.238 372.235H234.355C234.355 380.051 223.913 385.264 214.768 385.264C205.667 385.264 195.238 380.051 195.238 372.235Z" fill="white"/>
<path d="M298.556 73.2523C305.205 61.6081 287.25 51.153 280.545 62.7755C277.034 68.8472 251.632 112.864 251.632 112.864L269.695 123.288C269.695 123.288 292.259 84.1544 298.539 73.3C298.552 73.2957 298.552 73.287 298.552 73.287L298.556 73.2523Z" fill="white"/>
<path d="M339.218 114.018L339.205 114.031C339.17 114.035 339.17 114.035 339.17 114.035C330.004 119.334 290.71 142.024 290.71 142.024L301.113 160.078C301.113 160.078 340.503 137.341 349.669 132.051C361.326 125.332 350.862 107.36 339.218 114.018Z" fill="white"/>
<path d="M225.593 48.1542C225.593 51.318 225.593 103.758 225.593 103.758H204.735C204.735 103.758 204.735 51.3137 204.735 48.1542C204.735 34.7089 225.593 34.7089 225.593 48.1542Z" fill="white"/>
<path d="M131.35 73.2523C124.701 61.6081 142.66 51.153 149.369 62.7755C152.876 68.8472 178.278 112.864 178.278 112.864L160.232 123.288C160.232 123.288 137.63 84.1544 131.363 73.3C131.363 73.2957 131.363 73.287 131.363 73.287L131.35 73.2523Z" fill="white"/>
<path d="M90.7011 114.018V114.031C90.7314 114.035 90.7314 114.035 90.7314 114.035C99.9149 119.334 139.196 142.024 139.196 142.024L128.772 160.078C128.772 160.078 89.3817 137.341 80.2199 132.051C68.5757 125.332 79.0351 107.36 90.7011 114.018Z" fill="white"/>
</g>
<defs>
<filter id="filter0_d" x="35.1406" y="2.07019" width="359.616" height="427.193" filterUnits="userSpaceOnUse" color-interpolation-filters="sRGB">
<feFlood flood-opacity="0" result="BackgroundImageFix"/>
<feColorMatrix in="SourceAlpha" type="matrix" values="0 0 0 0 0 0 0 0 0 0 0 0 0 0 0 0 0 0 127 0"/>
<feOffset dy="4"/>
<feGaussianBlur stdDeviation="20"/>
<feColorMatrix type="matrix" values="0 0 0 0 0 0 0 0 0 0 0 0 0 0 0 0 0 0 0.3 0"/>
<feBlend mode="normal" in2="BackgroundImageFix" result="effect1_dropShadow"/>
<feBlend mode="normal" in="SourceGraphic" in2="effect1_dropShadow" result="shape"/>
</filter>
</defs>
</svg>
