<svg width="37" height="47" viewBox="0 0 37 47" fill="none" xmlns="http://www.w3.org/2000/svg">
<path d="M18.4762 12.3522C13.1878 12.3522 8.89795 16.6414 8.89795 21.9339C8.89795 23.6758 9.38644 25.2957 10.1748 26.7167C12.5266 30.9564 13.1507 33.3362 13.5355 35.6395C13.8569 37.5701 14.3015 38.0187 15.7596 38.0187C16.3815 38.0187 17.3949 38.0187 18.4762 38.0187C19.5598 38.0187 20.5755 38.0187 21.1934 38.0187C22.6543 38.0187 23.0995 37.5701 23.4204 35.6395C23.8063 33.335 24.4299 30.9547 26.7811 26.7167C27.5723 25.2963 28.0579 23.6764 28.0579 21.9339C28.0596 16.6409 23.7698 12.3522 18.4762 12.3522Z" fill="#7F5CE2"/>
<path d="M21.9031 38.7124H15.0557C14.7707 38.7124 14.541 38.9415 14.541 39.2254V39.5685C14.541 39.8513 14.7707 40.0815 15.0557 40.0815H21.9031C22.1841 40.0815 22.4144 39.8513 22.4144 39.5685V39.2254C22.4156 38.9415 22.1841 38.7124 21.9031 38.7124Z" fill="#7F5CE2"/>
<path d="M21.9031 40.7661H15.0557C14.7707 40.7661 14.541 40.9941 14.541 41.2791V41.6223C14.541 41.905 14.7707 42.1341 15.0557 42.1341H21.9031C22.1841 42.1341 22.4144 41.905 22.4144 41.6223V41.2791C22.4156 40.9947 22.1841 40.7661 21.9031 40.7661Z" fill="#7F5CE2"/>
<path d="M21.9031 42.8204H15.0557C14.7707 42.8204 14.541 43.0495 14.541 43.3334V43.6765C14.541 43.9604 14.7707 44.1895 15.0557 44.1895H21.9031C22.1841 44.1895 22.4144 43.9604 22.4144 43.6765V43.3334C22.4156 43.0495 22.1841 42.8204 21.9031 42.8204Z" fill="#7F5CE2"/>
<path d="M15.9106 44.8741H21.0481C21.0481 45.9007 19.6766 46.5852 18.4756 46.5852C17.2804 46.5852 15.9106 45.9007 15.9106 44.8741Z" fill="#7F5CE2"/>
<path d="M29.4802 5.60682C30.3535 4.07751 27.9954 2.70438 27.1147 4.23084C26.6536 5.02827 23.3174 10.8092 23.3174 10.8092L25.6897 12.1783C25.6897 12.1783 28.6532 7.03866 29.4779 5.61309C29.4797 5.61252 29.4797 5.61138 29.4797 5.61138L29.4802 5.60682Z" fill="#7F5CE2"/>
<path d="M34.8206 10.9608L34.8189 10.9625C34.8143 10.9631 34.8143 10.9631 34.8143 10.9631C33.6105 11.659 28.4497 14.639 28.4497 14.639L29.816 17.0102C29.816 17.0102 34.9893 14.024 36.1932 13.3291C37.7242 12.4468 36.3499 10.0864 34.8206 10.9608Z" fill="#7F5CE2"/>
<path d="M19.8976 2.31048C19.8976 2.72601 19.8976 9.61332 19.8976 9.61332H17.1582C17.1582 9.61332 17.1582 2.72544 17.1582 2.31048C17.1582 0.544619 19.8976 0.544619 19.8976 2.31048Z" fill="#7F5CE2"/>
<path d="M7.51983 5.60682C6.64659 4.07751 9.00525 2.70438 9.88647 4.23084C10.347 5.02827 13.6832 10.8092 13.6832 10.8092L11.3132 12.1783C11.3132 12.1783 8.34462 7.03866 7.52154 5.61309C7.52154 5.61252 7.52154 5.61138 7.52154 5.61138L7.51983 5.60682Z" fill="#7F5CE2"/>
<path d="M2.18135 10.9608V10.9625C2.18534 10.9631 2.18534 10.9631 2.18534 10.9631C3.39146 11.659 8.55053 14.639 8.55053 14.639L7.18139 17.0102C7.18139 17.0102 2.00807 14.024 0.804796 13.3291C-0.724515 12.4468 0.649186 10.0864 2.18135 10.9608Z" fill="#7F5CE2"/>
</svg>
